<mxfile host="65bd71144e">
    <diagram id="YpHMVtdIoaBIZ9wn0Aj9" name="Page-1">
        <mxGraphModel dx="1058" dy="624" grid="1" gridSize="10" guides="1" tooltips="1" connect="1" arrows="1" fold="1" page="1" pageScale="1" pageWidth="827" pageHeight="1169" math="0" shadow="0">
            <root>
                <mxCell id="0"/>
                <mxCell id="1" parent="0"/>
                <mxCell id="18" value="Node" style="rounded=1;whiteSpace=wrap;html=1;sketch=1;fontSize=17;" vertex="1" parent="1">
                    <mxGeometry y="170" width="150" height="370" as="geometry"/>
                </mxCell>
                <mxCell id="2" value="Node" style="rounded=1;whiteSpace=wrap;html=1;sketch=1;fontSize=17;" vertex="1" parent="1">
                    <mxGeometry x="160" y="280" width="160" height="160" as="geometry"/>
                </mxCell>
                <mxCell id="3" value="Node" style="rounded=1;whiteSpace=wrap;html=1;sketch=1;fontSize=17;" vertex="1" parent="1">
                    <mxGeometry x="320" y="280" width="160" height="160" as="geometry"/>
                </mxCell>
                <mxCell id="4" value="Node" style="rounded=1;whiteSpace=wrap;html=1;sketch=1;fontSize=17;" vertex="1" parent="1">
                    <mxGeometry x="480" y="280" width="160" height="160" as="geometry"/>
                </mxCell>
                <mxCell id="15" style="edgeStyle=none;curved=1;rounded=1;sketch=1;html=1;fontSize=17;" edge="1" parent="1" source="7" target="8">
                    <mxGeometry relative="1" as="geometry"/>
                </mxCell>
                <mxCell id="7" value="Kubernetes API" style="rounded=0;whiteSpace=wrap;html=1;sketch=1;fontSize=17;" vertex="1" parent="1">
                    <mxGeometry x="160" y="170" width="480" height="100" as="geometry"/>
                </mxCell>
                <mxCell id="16" style="edgeStyle=none;curved=1;rounded=1;sketch=1;html=1;fontSize=17;" edge="1" parent="1" source="8" target="10">
                    <mxGeometry relative="1" as="geometry"/>
                </mxCell>
                <mxCell id="8" value="Scheduler" style="ellipse;whiteSpace=wrap;html=1;aspect=fixed;rounded=1;sketch=1;fontSize=17;" vertex="1" parent="1">
                    <mxGeometry x="40" y="200" width="80" height="80" as="geometry"/>
                </mxCell>
                <mxCell id="41" style="edgeStyle=none;curved=1;rounded=1;sketch=1;html=1;fontSize=17;" edge="1" parent="1" source="9" target="32">
                    <mxGeometry relative="1" as="geometry"/>
                </mxCell>
                <mxCell id="42" style="edgeStyle=none;curved=1;rounded=1;sketch=1;html=1;fontSize=17;" edge="1" parent="1" source="9" target="4">
                    <mxGeometry relative="1" as="geometry"/>
                </mxCell>
                <mxCell id="9" value="Controller-Manager&lt;br&gt;Controllers" style="ellipse;whiteSpace=wrap;html=1;aspect=fixed;rounded=1;sketch=1;fontSize=17;" vertex="1" parent="1">
                    <mxGeometry x="25" y="420" width="110" height="110" as="geometry"/>
                </mxCell>
                <mxCell id="11" style="edgeStyle=none;curved=1;rounded=1;sketch=1;html=1;fontSize=17;" edge="1" parent="1" source="10" target="9">
                    <mxGeometry relative="1" as="geometry"/>
                </mxCell>
                <mxCell id="12" style="edgeStyle=none;curved=1;rounded=1;sketch=1;html=1;fontSize=17;" edge="1" parent="1" source="10" target="8">
                    <mxGeometry relative="1" as="geometry"/>
                </mxCell>
                <mxCell id="10" value="ETCD" style="shape=cylinder3;whiteSpace=wrap;html=1;boundedLbl=1;backgroundOutline=1;size=15;rounded=1;sketch=1;fontSize=17;" vertex="1" parent="1">
                    <mxGeometry x="50" y="315" width="60" height="80" as="geometry"/>
                </mxCell>
                <mxCell id="14" style="edgeStyle=none;curved=1;rounded=1;sketch=1;html=1;fontSize=17;" edge="1" parent="1" source="13" target="7">
                    <mxGeometry relative="1" as="geometry"/>
                </mxCell>
                <mxCell id="13" value="Pod" style="ellipse;whiteSpace=wrap;html=1;aspect=fixed;rounded=1;sketch=1;fontSize=17;fillColor=#d5e8d4;strokeColor=#82b366;" vertex="1" parent="1">
                    <mxGeometry x="250" y="20" width="80" height="80" as="geometry"/>
                </mxCell>
                <mxCell id="17" value="Pod" style="ellipse;whiteSpace=wrap;html=1;aspect=fixed;rounded=1;sketch=1;fontSize=17;" vertex="1" parent="1">
                    <mxGeometry x="170" y="290" width="50" height="50" as="geometry"/>
                </mxCell>
                <mxCell id="19" value="Deployment" style="rounded=1;whiteSpace=wrap;html=1;sketch=1;fontSize=17;verticalAlign=top;" vertex="1" parent="1">
                    <mxGeometry x="650" y="50" width="120" height="300" as="geometry"/>
                </mxCell>
                <mxCell id="20" value="&lt;meta charset=&quot;utf-8&quot;&gt;&lt;span style=&quot;color: rgb(0, 0, 0); font-family: helvetica; font-size: 17px; font-style: normal; font-weight: 400; letter-spacing: normal; text-align: center; text-indent: 0px; text-transform: none; word-spacing: 0px; background-color: rgb(248, 249, 250); display: inline; float: none;&quot;&gt;Pod&lt;/span&gt;" style="ellipse;whiteSpace=wrap;html=1;aspect=fixed;rounded=1;sketch=1;fontSize=17;" vertex="1" parent="1">
                    <mxGeometry x="685" y="270" width="50" height="50" as="geometry"/>
                </mxCell>
                <mxCell id="21" value="Replica" style="text;html=1;strokeColor=none;fillColor=none;align=center;verticalAlign=middle;whiteSpace=wrap;rounded=0;sketch=1;fontSize=17;" vertex="1" parent="1">
                    <mxGeometry x="680" y="200" width="60" height="30" as="geometry"/>
                </mxCell>
                <mxCell id="22" value="Strategy" style="text;html=1;strokeColor=none;fillColor=none;align=center;verticalAlign=middle;whiteSpace=wrap;rounded=0;sketch=1;fontSize=17;" vertex="1" parent="1">
                    <mxGeometry x="680" y="110" width="60" height="30" as="geometry"/>
                </mxCell>
                <mxCell id="23" value="&lt;meta charset=&quot;utf-8&quot;&gt;&lt;span style=&quot;color: rgb(0, 0, 0); font-family: helvetica; font-size: 17px; font-style: normal; font-weight: 400; letter-spacing: normal; text-align: center; text-indent: 0px; text-transform: none; word-spacing: 0px; background-color: rgb(248, 249, 250); display: inline; float: none;&quot;&gt;Pod&lt;/span&gt;" style="ellipse;whiteSpace=wrap;html=1;aspect=fixed;rounded=1;sketch=1;fontSize=17;fillColor=#f8cecc;strokeColor=#b85450;" vertex="1" parent="1">
                    <mxGeometry x="250" y="290" width="50" height="50" as="geometry"/>
                </mxCell>
                <mxCell id="29" style="edgeStyle=none;curved=1;rounded=1;sketch=1;html=1;fontSize=17;" edge="1" parent="1" source="25" target="23">
                    <mxGeometry relative="1" as="geometry"/>
                </mxCell>
                <mxCell id="25" value="Service" style="rounded=1;whiteSpace=wrap;html=1;sketch=1;fontSize=17;align=left;verticalAlign=top;" vertex="1" parent="1">
                    <mxGeometry x="175" y="480" width="180" height="70" as="geometry"/>
                </mxCell>
                <mxCell id="26" value="IP" style="ellipse;whiteSpace=wrap;html=1;aspect=fixed;rounded=1;sketch=1;fontSize=17;" vertex="1" parent="1">
                    <mxGeometry x="220" y="540" width="50" height="50" as="geometry"/>
                </mxCell>
                <mxCell id="30" style="edgeStyle=none;curved=1;rounded=1;sketch=1;html=1;fontSize=17;" edge="1" parent="1" source="27" target="23">
                    <mxGeometry relative="1" as="geometry"/>
                </mxCell>
                <mxCell id="27" value="IP" style="ellipse;whiteSpace=wrap;html=1;aspect=fixed;rounded=1;sketch=1;fontSize=17;fillColor=#d5e8d4;strokeColor=#82b366;" vertex="1" parent="1">
                    <mxGeometry x="170" y="550" width="50" height="50" as="geometry"/>
                </mxCell>
                <mxCell id="28" value="80 -&amp;gt; Pods 8080" style="text;html=1;strokeColor=none;fillColor=none;align=center;verticalAlign=middle;whiteSpace=wrap;rounded=0;sketch=1;fontSize=17;" vertex="1" parent="1">
                    <mxGeometry x="185" y="520" width="170" height="30" as="geometry"/>
                </mxCell>
                <mxCell id="34" style="edgeStyle=none;curved=1;rounded=1;sketch=1;html=1;fontSize=17;" edge="1" parent="1" source="31" target="2">
                    <mxGeometry relative="1" as="geometry"/>
                </mxCell>
                <mxCell id="39" style="edgeStyle=none;curved=1;rounded=1;sketch=1;html=1;fontSize=17;" edge="1" parent="1" source="31" target="23">
                    <mxGeometry relative="1" as="geometry"/>
                </mxCell>
                <mxCell id="31" value="IP" style="ellipse;whiteSpace=wrap;html=1;aspect=fixed;rounded=1;sketch=1;fontSize=17;" vertex="1" parent="1">
                    <mxGeometry x="280" y="420" width="50" height="50" as="geometry"/>
                </mxCell>
                <mxCell id="32" value="IP" style="ellipse;whiteSpace=wrap;html=1;aspect=fixed;rounded=1;sketch=1;fontSize=17;" vertex="1" parent="1">
                    <mxGeometry x="420" y="420" width="50" height="50" as="geometry"/>
                </mxCell>
                <mxCell id="38" style="edgeStyle=none;curved=1;rounded=1;sketch=1;html=1;entryX=1;entryY=0.5;entryDx=0;entryDy=0;fontSize=17;" edge="1" parent="1" source="33" target="31">
                    <mxGeometry relative="1" as="geometry"/>
                </mxCell>
                <mxCell id="33" value="IP" style="ellipse;whiteSpace=wrap;html=1;aspect=fixed;rounded=1;sketch=1;fontSize=17;" vertex="1" parent="1">
                    <mxGeometry x="590" y="410" width="50" height="50" as="geometry"/>
                </mxCell>
                <mxCell id="36" style="edgeStyle=none;curved=1;rounded=1;sketch=1;html=1;fontSize=17;" edge="1" parent="1" source="35" target="23">
                    <mxGeometry relative="1" as="geometry"/>
                </mxCell>
                <mxCell id="37" style="edgeStyle=none;curved=1;rounded=1;sketch=1;html=1;fontSize=17;" edge="1" parent="1" source="35" target="17">
                    <mxGeometry relative="1" as="geometry"/>
                </mxCell>
                <mxCell id="35" value="Kube Proxy" style="ellipse;whiteSpace=wrap;html=1;aspect=fixed;rounded=1;sketch=1;fontSize=17;" vertex="1" parent="1">
                    <mxGeometry x="180" y="360" width="70" height="70" as="geometry"/>
                </mxCell>
                <mxCell id="40" value="Pod" style="ellipse;whiteSpace=wrap;html=1;aspect=fixed;rounded=1;sketch=1;fontSize=17;fillColor=#dae8fc;strokeColor=#6c8ebf;" vertex="1" parent="1">
                    <mxGeometry x="420" y="290" width="50" height="50" as="geometry"/>
                </mxCell>
            </root>
        </mxGraphModel>
    </diagram>
</mxfile>